<svg xmlns="http://www.w3.org/2000/svg" xmlns:xlink="http://www.w3.org/1999/xlink" width="210" zoomAndPan="magnify" viewBox="0 0 157.5 33.749998" height="45" preserveAspectRatio="xMidYMid meet" version="1.0"><defs><g/></defs><g fill="#ffffff" fill-opacity="1"><g transform="translate(1.968909, 21.940689)"><g><path d="M 1.421875 -1.515625 L 3.984375 -1.515625 L 3.984375 -10.28125 L 1.421875 -10.28125 L 1.421875 -11.796875 L 8.515625 -11.796875 C 9.347656 -11.796875 10.082031 -11.773438 10.71875 -11.734375 C 11.363281 -11.691406 11.941406 -11.601562 12.453125 -11.46875 C 13.816406 -11.09375 14.835938 -10.445312 15.515625 -9.53125 C 16.191406 -8.625 16.53125 -7.414062 16.53125 -5.90625 C 16.53125 -5.207031 16.445312 -4.5625 16.28125 -3.96875 C 16.125 -3.382812 15.878906 -2.851562 15.546875 -2.375 C 15.210938 -1.90625 14.796875 -1.503906 14.296875 -1.171875 C 13.796875 -0.835938 13.203125 -0.578125 12.515625 -0.390625 C 12.003906 -0.253906 11.425781 -0.15625 10.78125 -0.09375 C 10.132812 -0.03125 9.410156 0 8.609375 0 L 1.421875 0 Z M 8.296875 0.65625 C 8.742188 0.65625 9.179688 0.644531 9.609375 0.625 C 10.035156 0.601562 10.441406 0.570312 10.828125 0.53125 C 11.210938 0.5 11.566406 0.457031 11.890625 0.40625 C 12.222656 0.351562 12.507812 0.296875 12.75 0.234375 C 13.425781 0.0546875 14.039062 -0.210938 14.59375 -0.578125 C 15.144531 -0.941406 15.613281 -1.382812 16 -1.90625 C 16.382812 -2.425781 16.679688 -3.019531 16.890625 -3.6875 C 17.097656 -4.363281 17.203125 -5.101562 17.203125 -5.90625 C 17.203125 -6.488281 17.148438 -7.019531 17.046875 -7.5 C 16.941406 -7.976562 16.785156 -8.414062 16.578125 -8.8125 C 16.367188 -9.207031 16.109375 -9.566406 15.796875 -9.890625 C 15.492188 -10.222656 15.144531 -10.535156 14.75 -10.828125 C 15.207031 -10.585938 15.613281 -10.3125 15.96875 -10 C 16.320312 -9.695312 16.617188 -9.34375 16.859375 -8.9375 C 17.097656 -8.53125 17.28125 -8.078125 17.40625 -7.578125 C 17.53125 -7.078125 17.59375 -6.519531 17.59375 -5.90625 C 17.59375 -5.09375 17.488281 -4.332031 17.28125 -3.625 C 17.070312 -2.914062 16.765625 -2.28125 16.359375 -1.71875 C 15.953125 -1.164062 15.453125 -0.691406 14.859375 -0.296875 C 14.265625 0.0859375 13.585938 0.378906 12.828125 0.578125 C 12.285156 0.710938 11.640625 0.816406 10.890625 0.890625 C 10.148438 0.972656 9.285156 1.015625 8.296875 1.015625 L 2.03125 1.015625 L 2.03125 0.65625 Z M 9.0625 -1.515625 C 10 -1.515625 10.785156 -1.597656 11.421875 -1.765625 C 12.066406 -1.929688 12.585938 -2.179688 12.984375 -2.515625 C 13.390625 -2.859375 13.679688 -3.296875 13.859375 -3.828125 C 14.035156 -4.359375 14.125 -4.992188 14.125 -5.734375 L 14.125 -6.078125 C 14.125 -6.796875 14.03125 -7.414062 13.84375 -7.9375 C 13.664062 -8.46875 13.375 -8.90625 12.96875 -9.25 C 12.5625 -9.601562 12.03125 -9.863281 11.375 -10.03125 C 10.726562 -10.195312 9.925781 -10.28125 8.96875 -10.28125 L 6.125 -10.28125 L 6.125 -1.515625 Z M 6.78125 -9.625 L 8.796875 -9.625 C 9.421875 -9.625 9.953125 -9.597656 10.390625 -9.546875 C 10.828125 -9.492188 11.195312 -9.421875 11.5 -9.328125 C 11.8125 -9.234375 12.078125 -9.101562 12.296875 -8.9375 C 12.523438 -8.78125 12.75 -8.59375 12.96875 -8.375 C 12.726562 -8.519531 12.476562 -8.644531 12.21875 -8.75 C 11.96875 -8.863281 11.679688 -8.957031 11.359375 -9.03125 C 11.035156 -9.101562 10.664062 -9.15625 10.25 -9.1875 C 9.832031 -9.226562 9.347656 -9.25 8.796875 -9.25 L 7.15625 -9.25 L 7.15625 -2.078125 L 6.78125 -2.078125 Z M 1.984375 -9.625 L 3.59375 -9.625 L 3.59375 -9.25 L 1.984375 -9.25 Z M 1.984375 -9.625 "/></g></g></g><g fill="#ffffff" fill-opacity="1"><g transform="translate(20.58737, 21.940689)"><g><path d="M 1.421875 -1.515625 L 3.984375 -1.515625 L 3.984375 -10.28125 L 1.421875 -10.28125 L 1.421875 -11.796875 L 15.515625 -11.796875 L 15.515625 -8.109375 L 13.375 -8.109375 L 13.375 -10.28125 L 6.203125 -10.28125 L 6.203125 -6.546875 L 10.96875 -6.546875 L 10.96875 -5.359375 L 6.203125 -5.359375 L 6.203125 -1.515625 L 13.375 -1.515625 L 13.375 -3.703125 L 15.515625 -3.703125 L 15.515625 0 L 1.421875 0 Z M 13.953125 -7.4375 L 16.1875 -7.4375 L 16.1875 -11.328125 L 16.578125 -11.328125 L 16.578125 -7.078125 L 13.953125 -7.078125 Z M 6.890625 -9.625 L 12.984375 -9.625 L 12.984375 -9.25 L 7.265625 -9.25 L 7.265625 -7.109375 L 6.890625 -7.109375 Z M 1.984375 -9.625 L 3.578125 -9.625 L 3.578125 -9.25 L 1.984375 -9.25 Z M 6.890625 -4.703125 L 11.640625 -4.703125 L 11.640625 -6.078125 L 12.015625 -6.078125 L 12.015625 -4.34375 L 7.265625 -4.34375 L 7.265625 -2.078125 L 6.890625 -2.078125 Z M 16.1875 0.65625 L 16.1875 -3.171875 L 16.578125 -3.171875 L 16.578125 1.015625 L 1.984375 1.015625 L 1.984375 0.65625 Z M 16.1875 0.65625 "/></g></g></g><g fill="#ffffff" fill-opacity="1"><g transform="translate(38.940529, 21.940689)"><g><path d="M 1.5 -1.515625 L 3.984375 -1.515625 L 3.984375 -10.28125 L 1.359375 -10.28125 L 1.359375 -11.796875 L 8.84375 -11.796875 C 9.570312 -11.796875 10.226562 -11.78125 10.8125 -11.75 C 11.394531 -11.726562 11.921875 -11.675781 12.390625 -11.59375 C 12.953125 -11.476562 13.425781 -11.320312 13.8125 -11.125 C 14.207031 -10.925781 14.523438 -10.6875 14.765625 -10.40625 C 15.003906 -10.125 15.179688 -9.800781 15.296875 -9.4375 C 15.410156 -9.070312 15.46875 -8.675781 15.46875 -8.25 C 15.46875 -7.894531 15.40625 -7.546875 15.28125 -7.203125 C 15.15625 -6.867188 14.972656 -6.550781 14.734375 -6.25 C 14.492188 -5.945312 14.191406 -5.675781 13.828125 -5.4375 C 13.460938 -5.195312 13.039062 -5.003906 12.5625 -4.859375 C 12.050781 -4.703125 11.484375 -4.601562 10.859375 -4.5625 C 10.242188 -4.519531 9.570312 -4.5 8.84375 -4.5 L 6.125 -4.5 L 6.125 -1.515625 L 9.5 -1.515625 L 9.5 0 L 1.5 0 Z M 6.796875 -3.84375 L 8.3125 -3.84375 C 8.863281 -3.84375 9.34375 -3.84375 9.75 -3.84375 C 10.15625 -3.851562 10.515625 -3.867188 10.828125 -3.890625 C 11.148438 -3.910156 11.4375 -3.941406 11.6875 -3.984375 C 11.945312 -4.023438 12.207031 -4.078125 12.46875 -4.140625 C 13.050781 -4.273438 13.566406 -4.46875 14.015625 -4.71875 C 14.472656 -4.976562 14.859375 -5.285156 15.171875 -5.640625 C 15.484375 -6.003906 15.722656 -6.410156 15.890625 -6.859375 C 16.054688 -7.316406 16.140625 -7.8125 16.140625 -8.34375 C 16.140625 -8.988281 16.015625 -9.546875 15.765625 -10.015625 C 15.515625 -10.484375 15.125 -10.910156 14.59375 -11.296875 C 14.914062 -11.160156 15.195312 -10.984375 15.4375 -10.765625 C 15.6875 -10.546875 15.894531 -10.300781 16.0625 -10.03125 C 16.226562 -9.769531 16.347656 -9.492188 16.421875 -9.203125 C 16.503906 -8.910156 16.546875 -8.625 16.546875 -8.34375 C 16.546875 -7.78125 16.453125 -7.25 16.265625 -6.75 C 16.085938 -6.257812 15.820312 -5.816406 15.46875 -5.421875 C 15.125 -5.023438 14.691406 -4.679688 14.171875 -4.390625 C 13.660156 -4.097656 13.070312 -3.882812 12.40625 -3.75 C 12.195312 -3.695312 11.96875 -3.65625 11.71875 -3.625 C 11.46875 -3.59375 11.175781 -3.5625 10.84375 -3.53125 C 10.519531 -3.507812 10.148438 -3.492188 9.734375 -3.484375 C 9.316406 -3.484375 8.84375 -3.484375 8.3125 -3.484375 L 7.171875 -3.484375 L 7.171875 -2.078125 L 6.796875 -2.078125 Z M 9.25 -6.015625 C 9.78125 -6.015625 10.242188 -6.023438 10.640625 -6.046875 C 11.046875 -6.078125 11.398438 -6.132812 11.703125 -6.21875 C 12.242188 -6.375 12.617188 -6.613281 12.828125 -6.9375 C 13.046875 -7.269531 13.15625 -7.679688 13.15625 -8.171875 C 13.15625 -8.554688 13.082031 -8.878906 12.9375 -9.140625 C 12.800781 -9.410156 12.578125 -9.628906 12.265625 -9.796875 C 11.960938 -9.960938 11.5625 -10.082031 11.0625 -10.15625 C 10.5625 -10.238281 9.957031 -10.28125 9.25 -10.28125 L 6.125 -10.28125 L 6.125 -6.015625 Z M 6.796875 -9.625 L 9.1875 -9.625 C 10.144531 -9.625 10.878906 -9.566406 11.390625 -9.453125 C 11.898438 -9.347656 12.234375 -9.160156 12.390625 -8.890625 C 12.265625 -8.953125 12.113281 -9.003906 11.9375 -9.046875 C 11.769531 -9.085938 11.554688 -9.125 11.296875 -9.15625 C 11.046875 -9.1875 10.75 -9.207031 10.40625 -9.21875 C 10.0625 -9.238281 9.65625 -9.25 9.1875 -9.25 L 7.171875 -9.25 L 7.171875 -6.578125 L 6.796875 -6.578125 Z M 1.875 -9.625 L 3.390625 -9.625 L 3.390625 -9.25 L 1.875 -9.25 Z M 10.1875 0.65625 L 10.1875 -0.984375 L 10.5625 -0.984375 L 10.5625 1.015625 L 2.109375 1.015625 L 2.109375 0.65625 Z M 10.1875 0.65625 "/></g></g></g><g fill="#ffffff" fill-opacity="1"><g transform="translate(55.815582, 21.940689)"><g><path d="M 1.328125 -1.515625 L 3.984375 -1.515625 L 3.984375 -10.28125 L 1.421875 -10.28125 L 1.421875 -11.796875 L 8.765625 -11.796875 L 8.765625 -10.28125 L 6.125 -10.28125 L 6.125 -1.515625 L 8.671875 -1.515625 L 8.671875 0 L 1.328125 0 Z M 6.8125 -9.625 L 9.4375 -9.625 L 9.4375 -11.328125 L 9.8125 -11.328125 L 9.8125 -9.25 L 7.1875 -9.25 L 7.1875 -2.078125 L 6.8125 -2.078125 Z M 1.984375 -9.625 L 3.578125 -9.625 L 3.578125 -9.25 L 1.984375 -9.25 Z M 9.359375 0.65625 L 9.359375 -0.984375 L 9.734375 -0.984375 L 9.734375 1.015625 L 1.890625 1.015625 L 1.890625 0.65625 Z M 9.359375 0.65625 "/></g></g></g><g fill="#ffffff" fill-opacity="1"><g transform="translate(66.69293, 21.940689)"><g><path d="M 1.609375 -1.515625 L 3.984375 -1.515625 L 3.984375 -10.28125 L 1.421875 -10.28125 L 1.421875 -11.796875 L 6.96875 -11.796875 L 15.25 -3.203125 L 15.25 -10.28125 L 12.703125 -10.28125 L 12.703125 -11.796875 L 19.953125 -11.796875 L 19.953125 -10.28125 L 17.390625 -10.28125 L 17.390625 0 L 15.34375 0 L 6.109375 -9.78125 L 6.109375 -1.515625 L 8.671875 -1.515625 L 8.671875 0 L 1.609375 0 Z M 18.0625 0.65625 L 18.0625 -9.625 L 20.625 -9.625 L 20.625 -11.328125 L 21 -11.328125 L 21 -9.25 L 18.453125 -9.25 L 18.453125 1.015625 L 15.921875 1.015625 L 15.921875 0.65625 Z M 8.796875 -11.328125 L 14.890625 -5.1875 L 14.890625 -4.640625 L 8.296875 -11.328125 Z M 13.265625 -9.625 L 14.859375 -9.625 L 14.859375 -9.25 L 13.265625 -9.25 Z M 1.984375 -9.625 L 3.578125 -9.25 L 1.984375 -9.25 Z M 6.796875 -8.484375 L 7.171875 -8.078125 L 7.171875 -2.078125 L 6.796875 -2.078125 Z M 9.359375 0.65625 L 9.359375 -0.984375 L 9.734375 -0.984375 L 9.734375 1.015625 L 2.171875 1.015625 L 2.171875 0.65625 Z M 9.359375 0.65625 "/></g></g></g><g fill="#ffffff" fill-opacity="1"><g transform="translate(88.741356, 21.940689)"><g/></g></g><g fill="#ffffff" fill-opacity="1"><g transform="translate(94.900133, 21.940689)"><g><path d="M 1.421875 -1.515625 L 3.984375 -1.515625 L 3.984375 -10.28125 L 1.421875 -10.28125 L 1.421875 -11.796875 L 8.671875 -11.796875 L 8.671875 -10.28125 L 6.125 -10.28125 L 6.125 -6.546875 L 14.59375 -6.546875 L 14.59375 -10.28125 L 12.046875 -10.28125 L 12.046875 -11.796875 L 19.296875 -11.796875 L 19.296875 -10.28125 L 16.75 -10.28125 L 16.75 -1.515625 L 19.296875 -1.515625 L 19.296875 0 L 12.046875 0 L 12.046875 -1.515625 L 14.59375 -1.515625 L 14.59375 -5.359375 L 6.125 -5.359375 L 6.125 -1.515625 L 8.671875 -1.515625 L 8.671875 0 L 1.421875 0 Z M 17.421875 -9.625 L 19.96875 -9.625 L 19.96875 -11.3125 L 20.359375 -11.3125 L 20.359375 -9.25 L 17.8125 -9.25 L 17.8125 -2.078125 L 17.421875 -2.078125 Z M 6.8125 -9.625 L 9.34375 -9.625 L 9.34375 -11.3125 L 9.71875 -11.3125 L 9.71875 -9.25 L 7.1875 -9.25 L 7.1875 -7.109375 L 6.8125 -7.109375 Z M 12.625 -9.625 L 14.1875 -9.625 L 14.1875 -9.25 L 12.625 -9.25 Z M 1.984375 -9.625 L 3.578125 -9.25 L 1.984375 -9.25 Z M 6.8125 -4.703125 L 14.21875 -4.703125 L 14.21875 -4.34375 L 7.1875 -4.34375 L 7.1875 -2.078125 L 6.8125 -2.078125 Z M 19.984375 0.65625 L 19.984375 -0.984375 L 20.34375 -0.984375 L 20.34375 1.015625 L 12.625 1.015625 L 12.625 0.65625 Z M 9.359375 0.65625 L 9.359375 -0.984375 L 9.734375 -0.984375 L 9.734375 1.015625 L 1.984375 1.015625 L 1.984375 0.65625 Z M 9.359375 0.65625 "/></g></g></g><g fill="#ffffff" fill-opacity="1"><g transform="translate(116.389527, 21.940689)"><g><path d="M 3.5 -10.28125 L 0.953125 -10.28125 L 0.953125 -11.796875 L 8.203125 -11.796875 L 8.203125 -10.28125 L 5.625 -10.28125 L 5.625 -4.859375 C 5.625 -4.273438 5.726562 -3.757812 5.9375 -3.3125 C 6.15625 -2.875 6.445312 -2.503906 6.8125 -2.203125 C 7.1875 -1.898438 7.625 -1.671875 8.125 -1.515625 C 8.625 -1.359375 9.160156 -1.28125 9.734375 -1.28125 C 10.304688 -1.28125 10.8125 -1.328125 11.25 -1.421875 C 11.6875 -1.523438 12.0625 -1.660156 12.375 -1.828125 C 12.6875 -2.003906 12.9375 -2.207031 13.125 -2.4375 C 13.320312 -2.664062 13.46875 -2.90625 13.5625 -3.15625 C 13.613281 -3.351562 13.65625 -3.535156 13.6875 -3.703125 C 13.726562 -3.867188 13.757812 -4.050781 13.78125 -4.25 C 13.800781 -4.445312 13.8125 -4.675781 13.8125 -4.9375 C 13.820312 -5.207031 13.828125 -5.539062 13.828125 -5.9375 L 13.828125 -10.28125 L 11.28125 -10.28125 L 11.28125 -11.796875 L 18.53125 -11.796875 L 18.53125 -10.28125 L 15.96875 -10.28125 L 15.96875 -5.78125 C 15.96875 -5.207031 15.953125 -4.722656 15.921875 -4.328125 C 15.898438 -3.929688 15.863281 -3.628906 15.8125 -3.421875 C 15.65625 -2.816406 15.390625 -2.285156 15.015625 -1.828125 C 14.640625 -1.367188 14.1875 -0.988281 13.65625 -0.6875 C 13.125 -0.382812 12.519531 -0.15625 11.84375 0 C 11.175781 0.15625 10.472656 0.234375 9.734375 0.234375 C 8.742188 0.234375 7.859375 0.113281 7.078125 -0.125 C 6.304688 -0.375 5.65625 -0.71875 5.125 -1.15625 C 4.59375 -1.601562 4.1875 -2.140625 3.90625 -2.765625 C 3.632812 -3.390625 3.5 -4.085938 3.5 -4.859375 Z M 5.359375 -0.25 C 6.046875 0.101562 6.742188 0.382812 7.453125 0.59375 C 8.160156 0.800781 8.921875 0.90625 9.734375 0.90625 C 10.347656 0.90625 10.945312 0.847656 11.53125 0.734375 C 12.113281 0.617188 12.660156 0.453125 13.171875 0.234375 C 13.691406 0.0234375 14.164062 -0.238281 14.59375 -0.5625 C 15.019531 -0.882812 15.382812 -1.257812 15.6875 -1.6875 C 15.988281 -2.113281 16.222656 -2.59375 16.390625 -3.125 C 16.566406 -3.65625 16.65625 -4.238281 16.65625 -4.875 L 16.65625 -9.625 L 19.296875 -9.625 L 19.296875 -11.3125 L 19.6875 -11.3125 L 19.6875 -9.25 L 17.03125 -9.25 L 17.03125 -4.859375 C 17.03125 -3.898438 16.84375 -3.039062 16.46875 -2.28125 C 16.09375 -1.53125 15.570312 -0.890625 14.90625 -0.359375 C 14.25 0.160156 13.476562 0.5625 12.59375 0.84375 C 11.707031 1.125 10.753906 1.265625 9.734375 1.265625 C 9.285156 1.265625 8.847656 1.226562 8.421875 1.15625 C 7.992188 1.082031 7.585938 0.976562 7.203125 0.84375 C 6.828125 0.71875 6.476562 0.5625 6.15625 0.375 C 5.84375 0.195312 5.578125 -0.0078125 5.359375 -0.25 Z M 6.3125 -9.625 L 8.875 -9.625 L 8.875 -11.3125 L 9.25 -11.3125 L 9.25 -9.25 L 6.6875 -9.25 L 6.6875 -4.859375 C 6.6875 -4.484375 6.738281 -4.128906 6.84375 -3.796875 C 6.957031 -3.472656 7.128906 -3.179688 7.359375 -2.921875 C 7.585938 -2.671875 7.878906 -2.457031 8.234375 -2.28125 C 8.597656 -2.101562 9.035156 -1.984375 9.546875 -1.921875 C 8.992188 -1.921875 8.515625 -1.988281 8.109375 -2.125 C 7.703125 -2.269531 7.363281 -2.472656 7.09375 -2.734375 C 6.832031 -2.992188 6.632812 -3.300781 6.5 -3.65625 C 6.375 -4.019531 6.3125 -4.421875 6.3125 -4.859375 Z M 11.84375 -9.625 L 13.4375 -9.625 L 13.4375 -9.25 L 11.84375 -9.25 Z M 1.515625 -9.625 L 3.109375 -9.625 L 3.109375 -9.25 L 1.515625 -9.25 Z M 1.515625 -9.625 "/></g></g></g><g fill="#ffffff" fill-opacity="1"><g transform="translate(136.514515, 21.940689)"><g><path d="M 1.5 -1.515625 L 3.984375 -1.515625 L 3.984375 -10.28125 L 1.359375 -10.28125 L 1.359375 -11.796875 L 8.171875 -11.796875 C 8.835938 -11.796875 9.429688 -11.789062 9.953125 -11.78125 C 10.484375 -11.769531 10.945312 -11.753906 11.34375 -11.734375 C 11.75 -11.710938 12.097656 -11.6875 12.390625 -11.65625 C 12.691406 -11.625 12.953125 -11.585938 13.171875 -11.546875 C 13.691406 -11.453125 14.128906 -11.316406 14.484375 -11.140625 C 14.847656 -10.960938 15.144531 -10.75 15.375 -10.5 C 15.601562 -10.257812 15.769531 -9.984375 15.875 -9.671875 C 15.976562 -9.367188 16.03125 -9.039062 16.03125 -8.6875 C 16.03125 -8.4375 15.972656 -8.179688 15.859375 -7.921875 C 15.753906 -7.660156 15.585938 -7.410156 15.359375 -7.171875 C 15.140625 -6.929688 14.863281 -6.710938 14.53125 -6.515625 C 14.195312 -6.316406 13.800781 -6.160156 13.34375 -6.046875 C 13.800781 -5.984375 14.210938 -5.867188 14.578125 -5.703125 C 14.941406 -5.535156 15.25 -5.332031 15.5 -5.09375 C 15.75 -4.851562 15.9375 -4.578125 16.0625 -4.265625 C 16.195312 -3.960938 16.265625 -3.648438 16.265625 -3.328125 C 16.265625 -2.941406 16.207031 -2.582031 16.09375 -2.25 C 15.988281 -1.925781 15.8125 -1.632812 15.5625 -1.375 C 15.320312 -1.125 15.003906 -0.90625 14.609375 -0.71875 C 14.222656 -0.53125 13.75 -0.382812 13.1875 -0.28125 C 12.570312 -0.164062 11.867188 -0.0859375 11.078125 -0.046875 C 10.285156 -0.015625 9.367188 0 8.328125 0 L 1.5 0 Z M 8.328125 0.65625 C 9.328125 0.65625 10.25 0.644531 11.09375 0.625 C 11.9375 0.601562 12.675781 0.53125 13.3125 0.40625 C 14.019531 0.269531 14.609375 0.0703125 15.078125 -0.1875 C 15.546875 -0.457031 15.914062 -0.757812 16.1875 -1.09375 C 16.457031 -1.425781 16.648438 -1.785156 16.765625 -2.171875 C 16.878906 -2.566406 16.9375 -2.960938 16.9375 -3.359375 C 16.9375 -3.640625 16.894531 -3.914062 16.8125 -4.1875 C 16.726562 -4.457031 16.597656 -4.707031 16.421875 -4.9375 C 16.253906 -5.164062 16.035156 -5.375 15.765625 -5.5625 C 15.503906 -5.757812 15.191406 -5.925781 14.828125 -6.0625 C 15.484375 -6.375 15.960938 -6.75 16.265625 -7.1875 C 16.566406 -7.632812 16.71875 -8.132812 16.71875 -8.6875 C 16.71875 -9.238281 16.566406 -9.757812 16.265625 -10.25 C 15.972656 -10.75 15.488281 -11.171875 14.8125 -11.515625 C 15.1875 -11.421875 15.515625 -11.28125 15.796875 -11.09375 C 16.085938 -10.914062 16.328125 -10.707031 16.515625 -10.46875 C 16.710938 -10.226562 16.859375 -9.960938 16.953125 -9.671875 C 17.046875 -9.378906 17.09375 -9.078125 17.09375 -8.765625 C 17.09375 -8.191406 16.972656 -7.691406 16.734375 -7.265625 C 16.503906 -6.835938 16.128906 -6.441406 15.609375 -6.078125 C 16.222656 -5.753906 16.660156 -5.359375 16.921875 -4.890625 C 17.179688 -4.429688 17.3125 -3.921875 17.3125 -3.359375 C 17.3125 -2.867188 17.238281 -2.40625 17.09375 -1.96875 C 16.957031 -1.53125 16.734375 -1.128906 16.421875 -0.765625 C 16.109375 -0.410156 15.703125 -0.101562 15.203125 0.15625 C 14.710938 0.414062 14.109375 0.617188 13.390625 0.765625 C 12.753906 0.890625 12.019531 0.960938 11.1875 0.984375 C 10.363281 1.003906 9.410156 1.015625 8.328125 1.015625 L 2.109375 1.015625 L 2.109375 0.65625 Z M 9.65625 -6.578125 C 10.4375 -6.578125 11.078125 -6.613281 11.578125 -6.6875 C 12.085938 -6.769531 12.492188 -6.890625 12.796875 -7.046875 C 13.097656 -7.210938 13.3125 -7.414062 13.4375 -7.65625 C 13.5625 -7.90625 13.625 -8.195312 13.625 -8.53125 C 13.625 -8.875 13.515625 -9.179688 13.296875 -9.453125 C 13.085938 -9.722656 12.742188 -9.929688 12.265625 -10.078125 C 11.941406 -10.171875 11.566406 -10.226562 11.140625 -10.25 C 10.722656 -10.269531 10.226562 -10.28125 9.65625 -10.28125 L 6.140625 -10.28125 L 6.140625 -6.578125 Z M 6.828125 -9.625 L 9.65625 -9.625 C 10.132812 -9.625 10.546875 -9.609375 10.890625 -9.578125 C 11.242188 -9.554688 11.539062 -9.515625 11.78125 -9.453125 C 12.03125 -9.398438 12.238281 -9.328125 12.40625 -9.234375 C 12.582031 -9.148438 12.738281 -9.035156 12.875 -8.890625 C 12.738281 -8.953125 12.582031 -9.003906 12.40625 -9.046875 C 12.238281 -9.085938 12.03125 -9.125 11.78125 -9.15625 C 11.53125 -9.1875 11.226562 -9.207031 10.875 -9.21875 C 10.53125 -9.238281 10.125 -9.25 9.65625 -9.25 L 7.203125 -9.25 L 7.203125 -7.15625 L 6.828125 -7.15625 Z M 1.9375 -9.625 L 3.578125 -9.625 L 3.578125 -9.234375 L 1.9375 -9.234375 Z M 9.828125 -1.515625 C 10.484375 -1.515625 11.046875 -1.53125 11.515625 -1.5625 C 11.984375 -1.601562 12.382812 -1.6875 12.71875 -1.8125 C 12.9375 -1.894531 13.113281 -1.992188 13.25 -2.109375 C 13.394531 -2.222656 13.507812 -2.347656 13.59375 -2.484375 C 13.675781 -2.617188 13.734375 -2.765625 13.765625 -2.921875 C 13.796875 -3.078125 13.8125 -3.238281 13.8125 -3.40625 C 13.8125 -3.820312 13.679688 -4.179688 13.421875 -4.484375 C 13.171875 -4.796875 12.78125 -5.03125 12.25 -5.1875 C 11.914062 -5.28125 11.535156 -5.335938 11.109375 -5.359375 C 10.691406 -5.390625 10.210938 -5.40625 9.671875 -5.40625 L 6.140625 -5.40625 L 6.140625 -1.515625 Z M 6.828125 -4.734375 L 9.65625 -4.734375 C 10.132812 -4.734375 10.554688 -4.71875 10.921875 -4.6875 C 11.285156 -4.65625 11.601562 -4.601562 11.875 -4.53125 C 12.144531 -4.46875 12.375 -4.390625 12.5625 -4.296875 C 12.75 -4.203125 12.910156 -4.082031 13.046875 -3.9375 C 12.878906 -4.019531 12.703125 -4.085938 12.515625 -4.140625 C 12.335938 -4.191406 12.117188 -4.234375 11.859375 -4.265625 C 11.597656 -4.304688 11.289062 -4.332031 10.9375 -4.34375 C 10.582031 -4.363281 10.15625 -4.375 9.65625 -4.375 L 7.203125 -4.375 L 7.203125 -2.078125 L 6.828125 -2.078125 Z M 6.828125 -4.734375 "/></g></g></g></svg>